<svg width="400" height="400" xmlns="http://www.w3.org/2000/svg">
  <g fill="none" stroke-width="1.5" stroke-linecap="round" stroke-linejoin="round">
    <!-- Indigo Waves -->
    <path d="M0,50 C100,110 100,-10 200,50 C300,110 300,-10 400,50 
             M0,150 C100,210 100,90 200,150 C300,210 300,90 400,150 
             M0,250 C100,310 100,190 200,250 C300,310 300,190 400,250 
             M0,350 C100,410 100,290 200,350 C300,410 300,290 400,350 
             M0,-50 C100,10 100,-110 200,-50 C300,10 300,-110 400,-50 
             M0,450 C100,510 100,390 200,450 C300,510 300,390 400,450" 
          stroke="rgba(79, 70, 229, 0.3)" />
          
    <!-- Rose Waves -->
    <path d="M0,100 C100,40 100,160 200,100 C300,40 300,160 400,100 
             M0,200 C100,140 100,260 200,200 C300,140 300,260 400,200 
             M0,300 C100,240 100,360 200,300 C300,240 300,360 400,300 
             M0,0 C100,-60 100,60 200,0 C300,-60 300,60 400,0 
             M0,400 C100,340 100,460 200,400 C300,340 300,460 400,400" 
          stroke="rgba(225, 29, 72, 0.25)" />
          
    <!-- Purple Waves -->
    <path d="M0,75 C100,145 100,5 200,75 C300,145 300,5 400,75 
             M0,175 C100,245 100,105 200,175 C300,245 300,105 400,175 
             M0,275 C100,345 100,205 200,275 C300,345 300,205 400,275 
             M0,375 C100,445 100,305 200,375 C300,445 300,305 400,375 
             M0,-25 C100,45 100,-95 200,-25 C300,45 300,-95 400,-25 
             M0,475 C100,545 100,405 200,475 C300,545 300,405 400,475" 
          stroke="rgba(139, 92, 246, 0.2)" />
  </g>
</svg>
